<!DOCTYPE svg PUBLIC "-//W3C//DTD SVG 1.1//EN" "http://www.w3.org/Graphics/SVG/1.1/DTD/svg11.dtd" [
	<!ENTITY ns_svg "http://www.w3.org/2000/svg">
	<!ENTITY ns_xlink "http://www.w3.org/1999/xlink">
]>
<svg  version="1.1" id="&#x30EC;&#x30A4;&#x30E4;&#x30FC;_1" xmlns="&ns_svg;" width="500" height="500"
	 viewBox="0 0 500 500" style="overflow:visible;enable-background:new 0 0 500 500;" xml:space="preserve">
<g>
	<path style="fill:none;stroke:#3B1815;stroke-width:50;" d="M316.459,62.688c-69.279,0-125.435,56.161-125.435,125.435
		c0,29.646,10.337,56.842,27.528,78.31l-19.84,19.84l-64.29-64.288l-31.305,31.305l64.291,64.288l-13.713,13.706l-64.285-64.278
		l-31.305,31.305l64.279,64.29l-43.41,43.409l31.305,31.305l141.728-141.728c18.851,11.338,40.848,17.975,64.451,17.975
		c69.28,0,125.435-56.156,125.435-125.438C441.894,118.849,385.739,62.688,316.459,62.688z M316.459,259.704
		c-39.531,0-71.573-32.052-71.573-71.582c0-39.525,32.042-71.568,71.573-71.568s71.574,32.043,71.574,71.568
		C388.033,227.652,355.99,259.704,316.459,259.704z"/>
	<linearGradient id="XMLID_2_" gradientUnits="userSpaceOnUse" x1="250.0005" y1="437.3125" x2="250.0005" y2="62.688">
		<stop  offset="0" style="stop-color:#EB8C05"/>
		<stop  offset="1" style="stop-color:#FFF798"/>
	</linearGradient>
	<path style="fill:url(#XMLID_2_);" d="M316.459,62.688c-69.279,0-125.435,56.161-125.435,125.435
		c0,29.646,10.337,56.842,27.528,78.31l-19.84,19.84l-64.29-64.288l-31.305,31.305l64.291,64.288l-13.713,13.706l-64.285-64.278
		l-31.305,31.305l64.279,64.29l-43.41,43.409l31.305,31.305l141.728-141.728c18.851,11.338,40.848,17.975,64.451,17.975
		c69.28,0,125.435-56.156,125.435-125.438C441.894,118.849,385.739,62.688,316.459,62.688z M316.459,259.704
		c-39.531,0-71.573-32.052-71.573-71.582c0-39.525,32.042-71.568,71.573-71.568s71.574,32.043,71.574,71.568
		C388.033,227.652,355.99,259.704,316.459,259.704z"/>
</g>
</svg>
