<?xml version="1.0" encoding="iso-8859-1"?>
<!-- Generator: Adobe Illustrator 12.0.0, SVG Export Plug-In . SVG Version: 6.00 Build 51448)  -->
<!DOCTYPE svg PUBLIC "-//W3C//DTD SVG 1.1 Basic//EN" "http://www.w3.org/Graphics/SVG/1.1/DTD/svg11-basic.dtd" [
	<!ENTITY ns_svg "http://www.w3.org/2000/svg">
	<!ENTITY ns_xlink "http://www.w3.org/1999/xlink">
]>
<svg  version="1.1" baseProfile="basic" id="&#x30EC;&#x30A4;&#x30E4;&#x30FC;_1" xmlns="&ns_svg;" xmlns:xlink="&ns_xlink;"
	 width="500" height="500" viewBox="0 0 500 500" overflow="visible" enable-background="new 0 0 500 500" xml:space="preserve">
<g>
	<path fill="#FDF944" d="M415.014,359.65c0-43.898,16.647-129.637-1.188-169.439c-2.077-4.635-33.168-7.975-75.246-9.66
		c21.92-36.611,55.692-107.627,24.101-104.09c-9.74,1.09-19.289,17.165-16.686,26.196c11.531,40.062-4.905,64.542-32.393,77.117
		c-36.594-0.838-78.063-0.565-115.103,1.005c-36.795-12.596-60.525-36.516-40.494-65.103C210.333,41,296.86,132.591,264.833,142.833
		c-6.614,2.115-49.722-13.864-65.524-17.846c-35.872-9.039,2.046,35.638,23.025,40.012c45.441,9.476,89.308-26.92,65.163-72.224
		c-49.43-92.744-193.064,15.876-148.12,92.188c-24.628,2.735-41.857,6.52-45.703,11.473c-24.803,31.935-8.685,114.542-8.685,153.152
		c0,61.737-25.974,107.1,45.096,107.1c69.52,0,139.039,0,208.558,0c10.491,0,34.37,3.764,51.246,0.066
		c10.317,4.749,16.563-3.66,20.301-17.249c3.891-7.814,7.617-18.059,3.84-22.437C416.629,391.131,415.014,362.048,415.014,359.65z
		 M377.648,414.938c-87.369,0-174.738,0-262.107,0c0-27.265,0-54.529,0-81.794c0.887,2.467,2.72,4.169,6.068,4.169
		c42.714,0,85.429,0,128.145,0c38.929,0,77.857,0,116.786,0c4.301,0,8.205-2.303,11.523-5.562
		C376.775,361.622,376.204,391.759,377.648,414.938z M379.922,295.562c-41.51,0-83.02,0-124.531,0c-38.927,0-77.856,0-116.785,0
		c-10.075,0-17.981,12.619-21.246,20.625c-0.581,1.426-1.298,3.676-1.819,6.185c0-31.382,0-62.764,0-94.146
		c28.741,0,57.482,0,86.224,0c22.237,6.087,45.917,5.747,68.292,0c38.012,0,76.022,0,114.034,0
		C383.333,243.095,381.54,267.786,379.922,295.562z"/>
	<g>
		<path fill="none" d="M415.014,359.65c0-43.898,16.647-129.637-1.188-169.439c-2.077-4.635-33.168-7.975-75.246-9.66
			c21.92-36.611,55.692-107.627,24.101-104.09c-9.74,1.09-19.289,17.165-16.686,26.196c11.531,40.062-4.905,64.542-32.393,77.117
			c-36.594-0.838-78.063-0.565-115.103,1.005c-36.795-12.596-60.525-36.516-40.494-65.103
			C210.333,41,296.86,132.591,264.833,142.833c-6.614,2.115-49.722-13.864-65.524-17.846c-35.872-9.039,2.046,35.638,23.025,40.012
			c45.441,9.476,89.308-26.92,65.163-72.224c-49.43-92.744-193.064,15.876-148.12,92.188c-24.628,2.735-41.857,6.52-45.703,11.473
			c-24.803,31.935-8.685,114.542-8.685,153.152c0,61.737-25.974,107.1,45.096,107.1c69.52,0,139.039,0,208.558,0
			c10.491,0,34.37,3.764,51.246,0.066c10.317,4.749,16.563-3.66,20.301-17.249c3.891-7.814,7.617-18.059,3.84-22.437
			C416.629,391.131,415.014,362.048,415.014,359.65z M377.648,414.938c-87.369,0-174.738,0-262.107,0c0-27.265,0-54.529,0-81.794
			c0.887,2.467,2.72,4.169,6.068,4.169c42.714,0,85.429,0,128.145,0c38.929,0,77.857,0,116.786,0c4.301,0,8.205-2.303,11.523-5.562
			C376.775,361.622,376.204,391.759,377.648,414.938z M379.922,295.562c-41.51,0-83.02,0-124.531,0c-38.927,0-77.856,0-116.785,0
			c-10.075,0-17.981,12.619-21.246,20.625c-0.581,1.426-1.298,3.676-1.819,6.185c0-31.382,0-62.764,0-94.146
			c28.741,0,57.482,0,86.224,0c22.237,6.087,45.917,5.747,68.292,0c38.012,0,76.022,0,114.034,0
			C383.333,243.095,381.54,267.786,379.922,295.562z"/>
		<path fill="#601F00" d="M422.436,354.75c0.127-44.95,9.261-89.362,6.416-134.438c-0.626-9.91-1.978-19.842-4.836-29.37
			c-2.066-6.887-3.451-11.506-10.575-13.514c-8.938-2.519-18.315-3.417-27.526-4.308c-14.362-1.389-28.791-2.122-43.206-2.711
			c0.248,4.318,0.495,8.637,0.742,12.955c11.124-18.642,21.156-38.134,29.231-58.295c3.708-9.261,7.045-18.849,8.951-28.659
			c1.482-7.633,2.273-15.596-0.639-22.974c-2.26-5.723-8.553-7.645-14.186-7.118c-12.513,1.172-21.527,14.75-25.855,25.265
			c-2.214,5.377-3.324,11.325-2.501,17.108c0.933,6.556,3.126,12.788,3.721,19.468c0.412,4.628,0.13,9.483-0.782,14.028
			c-1.018,5.075-2.151,7.458-4.309,11.064c-1.883,3.15,1.265-1.674-0.885,1.289c-0.67,0.922-1.398,1.799-2.125,2.676
			c1.107-1.335-1.363,1.419-1.263,1.316c-0.805,0.822-1.659,1.595-2.512,2.367c-3.299,2.989-7.574,5.571-11.747,7.822
			c-2.44,1.316-5.157,0.816-7.847,0.764c-3.577-0.069-7.153-0.121-10.73-0.168c-7.938-0.105-15.879-0.146-23.818-0.15
			c-15.482-0.008-30.965,0.188-46.442,0.566c-7.256,0.177-14.511,0.412-21.764,0.688c-3.848,0.146-6.417-0.267-9.999-1.654
			c-3.433-1.329-6.784-2.857-10.085-4.482c-9.855-4.851-19.406-11.331-25.509-20.635c-2.379-3.626-3.7-7.474-4.203-11.762
			c-0.464-3.952,1.002-7.276,2.388-9.75c8.044-14.369,23.987-24.652,41.113-25.356c15.278-0.628,29.93,5.683,42.027,14.611
			c5.281,3.898,9.995,8.443,13.979,13.66c1.667,2.183,3.142,4.509,4.419,6.939c1.553,2.954,1.5,2.749,2.104,5.851
			c0.514,2.641,0.192-0.655,0.143,1.243c-0.021,0.741-0.389,2.332,0.164-0.671c-0.162,0.88-0.87,2.288,0.372-1.007
			c-0.644,1.707,2.178-3.649,1.998-3.391c-1.011,1.458,2.02-2.048,0.718-0.802c2.006-1.922,1.217-0.945,0.486-0.473
			c-1.081,0.699,1.779-0.717-0.333,0.09c-1.665,0.636,1.646-0.101,0.168,0.035c-0.479,0.044-0.968,0.008-1.446-0.015
			c-1.314-0.063-2.624-0.307-3.916-0.541c-3.95-0.715-7.831-1.819-11.686-2.927c-9.77-2.808-19.424-6.018-29.107-9.108
			c-7.969-2.543-16.273-5.726-24.642-6.561c-9.907-0.988-17.488,7.29-19.562,16.444c-1.686,7.441,1.966,14.143,6.326,19.904
			c10.577,13.973,25.077,24.597,42.738,26.319c23.028,2.246,45.401-7.413,60.42-24.695c16.192-18.632,18.598-44.362,7.917-66.161
			c-7.323-14.944-19.794-27.924-35.38-34.121c-14.474-5.756-30.188-5.327-45.091-1.604c-32.946,8.229-62.05,33.819-78.2,63.165
			c-13.69,24.876-18.37,55.157-3.613,80.645c3.616-6.263,7.232-12.526,10.848-18.79c-12.725,1.439-25.755,2.981-38.032,6.779
			c-9.576,2.961-15.45,9.004-20.331,17.608c-10.427,18.383-12.424,40.649-12.706,61.369c-0.304,22.407,1.865,44.792,3.661,67.103
			c1.53,19.006,1.626,37.561-0.164,56.569c-1.57,16.681-4.619,33.887-2.141,50.626c2.137,14.437,11.171,24.581,25.104,28.674
			c10.767,3.162,21.886,3.282,33.016,3.282c16.552,0,33.104,0,49.657,0c33.104,0,66.209,0,99.313,0
			c19.45,0,39.145-0.903,58.565,0.179c16.096,0.896,32.067,2.853,48.04-0.423c-1.075-0.029-2.151-0.06-3.227-0.089
			c14.049,5.871,23.62-7.06,29.111-18.388c1.47-3.034,2.42-6.343,3.417-9.549c1.075-3.455,3.056-6.833,4.179-10.362
			c1.914-6.02,3.754-14.173-0.223-19.777c0.234,1.249,0.469,2.498,0.703,3.747C423.298,392.998,422.664,373.952,422.436,354.75
			c-0.053-4.439-2.84-6.651-6.889-3.978c-4.104,2.709-8.016,8.719-7.955,13.778c0.097,8.155,0.498,16.299,0.494,24.46
			c-0.002,6.823-0.188,13.646-0.535,20.461c-0.183,3.58-0.456,7.154-0.773,10.725c-0.153,1.727-0.565,3.973,0.532,5.521
			c0.832,1.173,0.878,1.218,0.814,2.716c-0.214,5.072-3.929,10.719-5.524,15.436c-0.461,1.363-1.031,2.683-1.611,3.998
			c0.582-1.32-1.462,1.883-0.211,0.199c0.3-0.403,0.467-0.43,0.824-0.61c-1.057,0.532-1.934,0.501-3.106,0.444
			c-1.095-0.054-1.988-0.472-2.982-0.888c-1.563-0.653-2.733-0.142-4.291,0.137c-2.945,0.526-5.944,0.75-8.928,0.93
			c-6.672,0.4-13.388,0.079-20.052-0.328c-28.97-1.772-57.979-1.204-87.004-1.204c-33.104,0-66.209,0-99.313,0
			c-15.811,0-31.688,0.421-47.489-0.107c-8.84-0.295-17.907-1.375-25.937-5.294c-12.309-6.006-14.762-18.442-14.717-30.062
			c0.072-18.329,3.446-36.562,4.346-54.86c0.97-19.709-1.171-39.383-2.741-59.006c-1.981-24.769-4.271-50.929,0.208-75.383
			c1.064-5.809,2.235-9.947,4-14.269c0.122-0.298,1.544-3.375,0.367-0.986c0.577-1.172,1.231-2.303,1.898-3.425
			c0.71-1.12,0.677-1.088-0.102,0.095c0.36-0.512,0.732-1.015,1.116-1.509c-0.708,0.933-3.302,2.755-0.936,1.316
			c-1.443,0.877,0.944-0.414,1.043-0.456c1.202-0.518,2.451-0.927,3.693-1.335c3.129-1.028,6.358-1.755,9.575-2.446
			c8.231-1.769,16.638-2.766,24.997-3.711c6.628-0.75,14.526-12.437,10.848-18.79c-3.811-6.582-6.261-13.47-7.382-20.996
			c-0.964-6.477-0.323-14.16,0.862-19.578c0.39-1.782,0.875-3.542,1.388-5.292c0.858-2.925-0.71,2.007,0.282-0.888
			c0.3-0.875,0.628-1.741,0.957-2.605c0.662-1.744,1.406-3.456,2.175-5.155c0.177-0.391,1.576-3.214,0.315-0.698
			c0.566-1.129,1.17-2.239,1.779-3.345c0.921-1.673,1.912-3.307,2.924-4.927c0.209-0.334,1.988-3.013,0.443-0.727
			c0.542-0.801,1.104-1.588,1.666-2.375c1.13-1.582,2.322-3.119,3.531-4.641c0.607-0.765,1.234-1.514,1.861-2.263
			c0.241-0.289,2.853-3.236,1.399-1.636c10.6-11.67,22.668-20.59,37.207-26.886c13.683-5.925,28.593-8.625,43.392-6.073
			c15.15,2.612,27.939,12.254,36.657,24.607c5.92,8.39,10.912,18.468,11.363,28.9c0.176,4.061-0.568,8.872-1.534,11.515
			c-1.194,3.266-2.97,5.954-5.318,8.407c-6.751,7.052-15.996,11.054-25.429,13.305c-9.313,2.222-21.375,2.482-30.397-0.829
			c-7.559-2.775-14.251-8.232-20.044-13.682c-2.727-2.565-5.183-5.434-7.44-8.416c-1.029-1.36-1.961-2.788-2.835-4.251
			c-0.81-1.356-1.598-3.138-1.697-3.46c-0.168-0.548-0.262-1.112-0.348-1.677c0.016,0.355,0.032,0.71,0.048,1.065
			c0.121-1.749-0.181-0.677-0.904,3.215c-0.738,2.225-3.257,6.083-5.988,7.273c0.211-0.092,1.864-0.366,0.648-0.214
			c3.64-0.454,7.544,0.58,11.019,1.546c8.963,2.494,17.786,5.512,26.647,8.337c9.145,2.915,18.323,5.824,27.67,8.029
			c6.042,1.425,10.929,1.862,16.367-1.653c12.457-8.05,14.259-23.906,7.839-36.12c-6.254-11.898-17.766-21.515-29.268-28.068
			c-14.139-8.054-30.303-11.292-46.318-8.286c-21.008,3.943-38.229,21.059-48.834,38.736c-5.95,9.917-9.246,22.201-6.516,33.646
			c2.429,10.187,9.642,18.18,17.644,24.516c4.522,3.581,9.563,6.484,14.69,9.096c5.471,2.787,13.295,7.337,19.522,7.077
			c15.226-0.636,30.463-1.006,45.701-1.221c15.418-0.217,30.839-0.225,46.258-0.068c7.126,0.073,14.252,0.197,21.377,0.357
			c2.606,0.058,5.813-2.296,8.012-3.439c2.487-1.294,4.873-2.772,7.199-4.333c19.24-12.911,31.305-34.439,32.415-57.54
			c0.285-5.943-0.281-11.981-1.229-17.842c-0.788-4.881-3.591-10.824-2.462-15.213c-0.313,1.216,0.945-1.93,0.205-0.486
			c1.596-3.109-0.946,0.98,1.123-1.809c0.729-0.984,1.196-1.545,2.542-2.165c2.622-1.208,5.701-0.663,7.468,0.235
			c1.446,0.735,2.559,2.643,2.807,3.486c0.955,3.246,0.725,4.351,0.307,8.412c-0.212,2.058-0.16,1.465-0.706,4.1
			c-0.425,2.055-0.959,4.087-1.513,6.111c-1.232,4.502-2.496,8.003-4.425,13.043c-7.536,19.697-16.614,37.007-27.508,55.263
			c-1.549,2.596-5.388,12.705,0.742,12.955c22.542,0.92,46.499,0.947,68.529,6.432c0.436,0.108,1.881,0.624,2.673,0.951
			c0.684,0.282,2.55,1.796,1.175,0.351c1.974,2.073,2.728,6.971,3.452,9.634c2.555,9.383,3.545,19.176,4.098,28.856
			c2.44,42.699-6.665,85.023-6.785,127.633c-0.013,4.469,2.886,6.62,6.889,3.978C418.633,365.787,422.421,359.839,422.436,354.75z"
			/>
		<path fill="#601F00" d="M381.777,404.795c-87.369,0-174.738,0-262.107,0c1.098,1.747,2.195,3.495,3.293,5.242
			c0-27.265,0-54.529,0-81.794c-4.713,4.516-9.427,9.031-14.141,13.548c1.625,3.725,4.713,5.366,8.658,5.664
			c5.838,0.44,11.886,0,17.743,0c11.829,0,23.657,0,35.486,0c23.657,0,47.315,0,70.973,0c23.747,0,47.495,0,71.243,0
			c11.876,0,23.753,0,35.629,0c5.444,0,11.291,0.613,16.663-0.326c5.584-0.978,10.13-4.233,14.213-8.032
			c-2.93-0.815-5.859-1.63-8.789-2.445c-1.209,28.396-2.013,56.888-0.308,85.279c0.324,5.399,6.61,2.332,8.683,0.353
			c3.886-3.71,6.271-8.972,5.948-14.339c-1.619-26.968-0.627-54.128,0.521-81.094c0.273-6.41-5.114-5.864-8.789-2.445
			c-3.045,2.832-5.937,2.765-9.986,2.765c-5.278,0-10.557,0-15.835,0c-11.217,0-22.434,0-33.65,0c-22.428,0-44.856,0-67.284,0
			c-22.343,0-44.687,0-67.03,0c-11.171,0-22.343,0-33.515,0c-5.257,0-10.514,0-15.771,0c-3.944,0-9.498,1.604-11.363-2.674
			c-1.552-3.557-6.536-0.179-8.086,1.302c-3.088,2.948-6.055,7.828-6.055,12.246c0,27.265,0,54.529,0,81.794
			c0,2.147,0.441,5.242,3.293,5.242c87.369,0,174.738,0,262.107,0C381.159,425.08,389.963,404.795,381.777,404.795z"/>
		<path fill="#601F00" d="M384.051,285.419c-52.067,0-104.134,0-156.201,0c-25.732,0-51.465,0-77.197,0
			c-5.247,0-10.49-0.441-15.414,1.687c-4.988,2.156-9.034,5.938-12.571,9.971c-6.874,7.836-11.827,17.647-14.172,27.784
			c4.823-2.464,9.645-4.927,14.467-7.39c0-31.382,0-62.764,0-94.146c-3.85,5.014-7.701,10.028-11.551,15.043
			c22.209,0,44.418,0,66.627,0c5.226,0,10.452,0,15.677,0c5.663,0,11.088,1.819,16.676,2.771c11.034,1.88,22.316,2.038,33.446,1.079
			c4.934-0.425,9.814-1.247,14.683-2.13c5.926-1.075,11.187-1.721,17.235-1.721c11.797,0,23.594,0,35.391,0
			c22.938,0,45.875,0,68.813,0c-1.098-1.748-2.195-3.495-3.293-5.242c-1.163,22.458-2.854,44.887-4.169,67.336
			c-0.268,4.571,3.061,6.505,6.889,3.978c4.334-2.861,7.651-8.591,7.955-13.778c1.314-22.449,3.006-44.879,4.169-67.336
			c0.111-2.151-0.522-5.242-3.293-5.242c-22.282,0-44.564,0-66.848,0c-11.141,0-22.282,0-33.424,0
			c-5.714,0-11.743-0.627-17.311,0.765c-5.49,1.372-11.063,2.264-16.682,2.9c-10.506,1.191-21.139,0.963-31.619-0.349
			c-5.555-0.695-11.037-1.88-16.443-3.316c-2.232-0.592-5.518,0-7.838,0c-3.266,0-6.532,0-9.798,0c-22.862,0-45.725,0-68.587,0
			c-6.197,0-11.551,9.676-11.551,15.043c0,31.382,0,62.764,0,94.146c0,3.079,1.337,6.238,5.023,4.932
			c4.821-1.709,8.35-7.596,9.444-12.321c1.349-5.827,2.994-10.03,8.641-13.5c3.25-1.997,9.539-0.678,13.146-0.678
			c5.938,0,11.876,0,17.815,0c23.753,0,47.506,0,71.259,0c47.448,0,94.897,0,142.346,0
			C383.433,305.704,392.236,285.419,384.051,285.419z"/>
	</g>
</g>
</svg>
